/vscmnt/brussel_pixiu_data/_data_brussel/112/vsc11236/PredSimResults/SUBJ07mtu3D/worker2.mot
version=1
nRows=5
nColumns=50
inDegrees=yes
endheader
                time	         pelvis_tilt	         pelvis_list	     pelvis_rotation	           pelvis_tx	           pelvis_ty	           pelvis_tz	       hip_flexion_r	     hip_adduction_r	      hip_rotation_r	        knee_angle_r	       ankle_angle_r	         mtp_angle_r	       hip_flexion_l	     hip_adduction_l	      hip_rotation_l	        knee_angle_l	       ankle_angle_l	         mtp_angle_l	    lumbar_extension	      lumbar_bending	     lumbar_rotation	 ercspn_r/activation	 intobl_r/activation	 extobl_r/activation	    abd_r/activation	    add_r/activation	hamstrings_r/activation	bifemsh_r/activation	glut_max_r/activation	iliopsoas_r/activation	rect_fem_r/activation	  vasti_r/activation	gastroc_r/activation	 soleus_r/activation	tib_ant_r/activation	 ercspn_l/activation	 intobl_l/activation	 extobl_l/activation	    abd_l/activation	    add_l/activation	hamstrings_l/activation	bifemsh_l/activation	glut_max_l/activation	iliopsoas_l/activation	rect_fem_l/activation	  vasti_l/activation	gastroc_l/activation	 soleus_l/activation	tib_ant_l/activation	
          1.09875033	         -3.47947223	          0.33101621	          8.18938433	          1.34047541	          0.85065881	         -0.01313792	         29.82091332	         -2.53594118	         -4.20373584	         -7.84598050	          3.60115706	          0.26637590	        -15.10330212	          0.68299843	          3.64785845	         -8.70510793	          8.10427524	         27.42652755	        -10.93661011	         -2.03934278	         -1.11640622	          0.12867425	          0.14114903	          0.01000540	          0.01997734	          0.12899673	          0.05802604	          0.09490490	          0.08529473	          0.02224326	          0.01183416	          0.01000222	          0.01000352	          0.01000117	          0.38651651	          0.13589394	          0.01000133	          0.01000154	          0.03467484	          0.01029528	          0.01528137	          0.13922075	          0.01656808	          0.15958033	          0.01183645	          0.01002466	          0.12356797	          0.27719727	          0.02002436	
          1.10973784	         -3.48275517	          0.38523930	          8.19497213	          1.35613844	          0.84923564	         -0.01294656	         29.51073149	         -2.33191464	         -3.78438577	         -9.15382414	          3.30409646	          0.24922486	        -15.55800650	          0.63309731	          3.31694504	         -9.75920773	          7.14944170	         29.01663631	        -10.82536509	         -1.64686687	         -1.34054497	          0.10875917	          0.12820973	          0.01000135	          0.01688743	          0.10903254	          0.05712254	          0.10287212	          0.13342387	          0.01880071	          0.01000546	          0.01000164	          0.01653959	          0.01183261	          0.41573037	          0.15003950	          0.01000056	          0.01000526	          0.02930789	          0.02364900	          0.01298268	          0.11767371	          0.01400411	          0.13488469	          0.01000764	          0.01000104	          0.10444225	          0.25867659	          0.01692501	
          1.12072534	         -3.47960726	          0.43940733	          8.14977567	          1.37195518	          0.84802463	         -0.01266819	         29.13257257	         -2.17700143	         -3.38519178	        -10.39017526	          2.92891423	          0.24582599	        -15.87458933	          0.59616756	          2.94307951	        -11.07721790	          6.08040191	         30.55049858	        -10.70621528	         -1.25364680	         -1.55768649	          0.14269949	          0.10836593	          0.01000153	          0.10026877	          0.12638750	          0.05388608	          0.09126369	          0.13149648	          0.01589108	          0.01000158	          0.01000032	          0.01397991	          0.01000133	          0.47100181	          0.16362683	          0.01000049	          0.01000161	          0.02477164	          0.01999042	          0.01109972	          0.09946143	          0.01183737	          0.11401028	          0.01002915	          0.01000374	          0.08827674	          0.23691736	          0.01430539	
          1.13171284	         -3.47163042	          0.50930037	          8.05765844	          1.38773724	          0.84718233	         -0.01229061	         28.77474768	         -2.04009823	         -3.05927438	        -11.64245018	          2.50217131	          0.22733982	        -15.97140033	          0.58881740	          2.53890216	        -12.77380731	          4.87821090	         31.97148006	        -10.59984450	         -0.87775599	         -1.76654101	          0.15056822	          0.09159323	          0.01000136	          0.14517635	          0.15134891	          0.04636731	          0.07714001	          0.15322514	          0.01343180	          0.01000323	          0.01000402	          0.01181710	          0.01000151	          0.49244652	          0.19761849	          0.01000052	          0.01000171	          0.02093751	          0.02381563	          0.01059100	          0.08406803	          0.01000744	          0.09636580	          0.01002159	          0.01000611	          0.07461330	          0.20263995	          0.01209125	
          1.14270035	         -3.45893190	          0.58719254	          7.92459393	          1.40335518	          0.84682776	         -0.01182015	         28.49244584	         -1.90849734	         -2.78655762	        -13.05018924	          2.28593773	          0.20945403	        -15.77619036	          0.60228727	          2.10867707	        -14.95542529	          3.56692037	         33.13563339	        -10.51388529	         -0.51241934	         -1.96576131	          0.15875108	          0.07741656	          0.01000118	          0.18047829	          0.17396511	          0.04471781	          0.06520237	          0.17086301	          0.01135344	          0.01000308	          0.03097894	          0.01000312	          0.01000165	          0.49689562	          0.23044081	          0.01000052	          0.01000164	          0.01769683	          0.04748551	          0.01036285	          0.07105742	          0.01000148	          0.08145176	          0.01000725	          0.01000151	          0.06306468	          0.17127546	          0.01021989	
